<?xml version="1.0" encoding="UTF-8"?>
<svg version="1.1" xmlns="http://www.w3.org/2000/svg" width="380" height="284">
<path d="M0 0 C125.4 0 250.8 0 380 0 C380 93.72 380 187.44 380 284 C254.6 284 129.2 284 0 284 C0 190.28 0 96.56 0 0 Z " fill="#0F172A" transform="translate(0,0)"/>
<path d="M0 0 C1.79244141 0.01740234 1.79244141 0.01740234 3.62109375 0.03515625 C5.41740234 0.04869141 5.41740234 0.04869141 7.25 0.0625 C8.17683594 0.07410156 9.10367188 0.08570312 10.05859375 0.09765625 C23.05859375 35.13902785 23.05859375 35.13902785 23.05859375 41.09765625 C19.75859375 41.09765625 16.45859375 41.09765625 13.05859375 41.09765625 C11.80194397 38.19165364 11.05859375 36.30161041 11.05859375 33.09765625 C6.10859375 33.09765625 1.15859375 33.09765625 -3.94140625 33.09765625 C-4.27140625 35.07765625 -4.60140625 37.05765625 -4.94140625 39.09765625 C-5.27140625 40.08765625 -5.60140625 41.07765625 -5.94140625 42.09765625 C-9.57140625 42.09765625 -13.20140625 42.09765625 -16.94140625 42.09765625 C-15.66203774 35.73881477 -13.90214743 29.89008995 -11.56640625 23.84765625 C-9.00308967 17.07916889 -6.68241208 10.32530245 -4.66796875 3.37109375 C-3.60444477 0.04329291 -3.62406048 0.12032073 0 0 Z " fill="#59DDCA" transform="translate(153.94140625,124.90234375)"/>
<path d="M0 0 C1.54296875 1.01953125 1.54296875 1.01953125 3.85546875 3.20703125 C4.47421875 3.66078125 5.09296875 4.11453125 5.73046875 4.58203125 C7.44308123 7.05580484 7.04999415 9.2891502 6.85546875 12.20703125 C3.82339361 12.43586711 0.87923291 12.57684413 -2.14453125 12.20703125 C-3.17060465 10.89365729 -4.1718045 9.5603902 -5.14453125 8.20703125 C-7.89363337 7.83165184 -10.35379076 8.02403187 -13.14453125 8.20703125 C-13.47453125 9.52703125 -13.80453125 10.84703125 -14.14453125 12.20703125 C-10.59665519 13.79995519 -7.44349798 15.13762826 -3.64453125 16.01953125 C0.82108738 17.53465186 4.11190077 19.28879781 6.85546875 23.20703125 C7.97370433 27.53040064 7.77455016 31.34874257 5.78515625 35.37109375 C4.087235 37.84172168 2.57108991 39.84922067 -0.14453125 41.20703125 C-7.97008446 41.87669962 -15.15120047 42.42729427 -21.7265625 37.59375 C-24.27566472 35.10082634 -25.12933272 33.59459386 -25.26953125 30.01953125 C-25.22828125 29.09140625 -25.18703125 28.16328125 -25.14453125 27.20703125 C-22.17453125 27.20703125 -19.20453125 27.20703125 -16.14453125 27.20703125 C-15.48453125 28.52703125 -14.82453125 29.84703125 -14.14453125 31.20703125 C-10.84453125 31.20703125 -7.54453125 31.20703125 -4.14453125 31.20703125 C-4.14453125 29.55703125 -4.14453125 27.90703125 -4.14453125 26.20703125 C-4.70140625 26.02527344 -5.25828125 25.84351563 -5.83203125 25.65625 C-7.43196028 25.12924635 -9.0294831 24.59490188 -10.625 24.0546875 C-12.20483677 23.52317653 -13.79021431 23.00757941 -15.3828125 22.515625 C-19.9439667 21.01241976 -22.78294023 19.63501441 -25.14453125 15.20703125 C-26.05378552 8.84225138 -26.05378552 8.84225138 -24.15625 5.4296875 C-18.40317529 -1.85516561 -8.61751255 -3.18643907 0 0 Z " fill="#59DCC9" transform="translate(208.14453125,125.79296875)"/>
<path d="M0 0 C3.97233702 1.27627344 7.79626675 2.70847644 11.6171875 4.3828125 C12.63554687 4.82753906 13.65390625 5.27226562 14.703125 5.73046875 C16.27320313 6.42076172 16.27320313 6.42076172 17.875 7.125 C18.94492187 7.59292969 20.01484375 8.06085938 21.1171875 8.54296875 C23.7458176 9.69299442 26.37337473 10.84540449 29 12 C29 14.97 29 17.94 29 21 C24.89980233 22.842305 20.79422392 24.67229455 16.6875 26.5 C15.52025391 27.02464844 14.35300781 27.54929688 13.15039062 28.08984375 C12.03212891 28.58613281 10.91386719 29.08242187 9.76171875 29.59375 C8.73006592 30.05458984 7.69841309 30.51542969 6.63549805 30.99023438 C4 32 4 32 1 32 C1 29.03 1 26.06 1 23 C3.10171867 22.1605118 5.20646625 21.32860344 7.3125 20.5 C9.07013672 19.80390625 9.07013672 19.80390625 10.86328125 19.09375 C14 18 14 18 17 18 C14.35629353 14.74767046 11.25074626 13.7757686 7.375 12.375 C1.08333333 10.08333333 1.08333333 10.08333333 0 9 C-0.07179964 7.48071962 -0.08392007 5.95832518 -0.0625 4.4375 C-0.05347656 3.61121094 -0.04445313 2.78492188 -0.03515625 1.93359375 C-0.02355469 1.29550781 -0.01195312 0.65742188 0 0 Z " fill="#58DCC9" transform="translate(260,133)"/>
<path d="M0 0 C0 2.97 0 5.94 0 9 C-5.61 10.98 -11.22 12.96 -17 15 C-13.44304132 16.77847934 -9.86244811 18.46327387 -6.25 20.125 C-5.07953125 20.66382813 -3.9090625 21.20265625 -2.703125 21.7578125 C-1.81109375 22.16773438 -0.9190625 22.57765625 0 23 C0 25.64 0 28.28 0 31 C-5.86529793 29.67300952 -11.22036801 27.84739262 -16.75 25.5 C-17.49121094 25.19191406 -18.23242188 24.88382813 -18.99609375 24.56640625 C-22.40230924 23.14154411 -25.69210851 21.65394575 -29 20 C-29 17.03 -29 14.06 -29 11 C-25.35506745 9.4265274 -21.70717419 7.86015756 -18.05639648 6.30029297 C-16.81500279 5.76870727 -15.5744337 5.23519155 -14.3347168 4.69970703 C-12.55215191 3.93014157 -10.76634771 3.1680931 -8.98046875 2.40625 C-7.90692139 1.94541016 -6.83337402 1.48457031 -5.72729492 1.00976562 C-3 0 -3 0 0 0 Z " fill="#58DBC8" transform="translate(130,134)"/>
<path d="M0 0 C2.97 0 5.94 0 9 0 C7.31782408 7.86383052 5.30402041 15.54415779 2.98876953 23.23974609 C0.43899704 31.76776621 -1.77695087 40.38213718 -4 49 C-6.64 49 -9.28 49 -12 49 C-10.70983267 38.05805906 -7.89929252 27.75147793 -4.875 17.1875 C-4.40163928 15.51256873 -3.92897824 13.83743955 -3.45703125 12.16210938 C-2.31272454 8.10575086 -1.15904059 4.05217194 0 0 Z " fill="#57D8C6" transform="translate(245,123)"/>
<path d="M0 0 C2.67550292 2.67550292 2.83209389 4.94879894 3.625 8.625 C3.88539063 9.81351563 4.14578125 11.00203125 4.4140625 12.2265625 C4.70410156 13.59941406 4.70410156 13.59941406 5 15 C2.03 15 -0.94 15 -4 15 C-2.07289294 4.44191344 -2.07289294 4.44191344 0 0 Z " fill="#193240" transform="translate(157,135)"/>
<path d="M0 0 C-1.03214077 2.22307242 -1.94675842 3.94266292 -3.625 5.75 C-5.71544756 9.17073237 -5.19818811 12.03623789 -5 16 C-7 14 -7 14 -7.4375 10.25 C-7.37046889 6.91063196 -6.7230522 5.09935671 -4.625 2.5 C-2 0 -2 0 0 0 Z " fill="#47ADA3" transform="translate(190,127)"/>
<path d="M0 0 C1.98 0.99 1.98 0.99 4 2 C3.34 2 2.68 2 2 2 C2.33 4.64 2.66 7.28 3 10 C2.01 9.67 1.02 9.34 0 9 C0 6.03 0 3.06 0 0 Z " fill="#409B94" transform="translate(260,133)"/>
</svg>
